<svg width="60" height="60" viewBox="0 0 60 60" fill="none" xmlns="http://www.w3.org/2000/svg">
<path d="M56.4884 12.2695C56.4884 12.2695 56.4884 12.2695 56.4884 12.3047L54.5901 14.4844H9.21484L7.03516 12.3047C7.03516 12.2695 7.03516 12.2695 7.03516 12.2695C7.07031 11.9882 7.24609 11.4611 7.31652 11.3202L14.3478 0.77332C14.6992 0.281367 15.2267 0 15.8243 0H47.6993C48.2969 0 48.8243 0.281367 49.1758 0.77332L56.207 11.3202C56.3126 11.5314 56.4884 12.0586 56.4884 12.2695Z" fill="#32D736"></path>
<path d="M56.4884 12.2695C56.4884 12.2695 56.4884 12.2695 56.4884 12.3047L54.5901 14.4844H31.7618V0H47.6993C48.2969 0 48.8243 0.281367 49.1758 0.77332L56.207 11.3202C56.3126 11.5314 56.4884 12.0586 56.4884 12.2695Z" fill="#10BB67"></path>
<path d="M56.4884 12.3047V43.2656C56.4884 43.6523 56.3479 44.0741 56.0665 44.3906L46.082 56.2383C45.7306 56.625 45.2383 56.8711 44.7461 56.8711H25.8789C25.6328 56.8711 25.3867 56.8359 25.1758 56.7306L8.08984 49.3125C7.45703 49.0314 7.03516 48.3987 7.03516 47.6954V12.3047H56.4884Z" fill="#10BB67"></path>
<path d="M56.4884 12.3047V43.2656C56.4884 43.6523 56.3479 44.0741 56.0665 44.3906L46.082 56.2383C45.7306 56.625 45.2383 56.8711 44.7461 56.8711H31.7618V12.3047H56.4884Z" fill="#0CA656"></path>
<path d="M38.7931 12.3047V26.6016C38.7931 27.2344 38.4416 27.8319 37.879 28.1484C37.5977 28.2889 37.3166 28.3594 37.0353 28.3594C36.6838 28.3594 36.3673 28.2538 36.0508 28.078L31.7618 25.1952L27.4729 28.078C26.9103 28.4295 26.2423 28.4647 25.6447 28.1484C25.082 27.8319 24.7306 27.2344 24.7306 26.6016V12.3047L26.4532 10.582H37.3868L38.7931 12.3047Z" fill="#C5C9F7"></path>
<path d="M38.7931 12.3047V26.6016C38.7931 27.2344 38.4416 27.8319 37.879 28.1484C37.5977 28.2889 37.3166 28.3594 37.0353 28.3594C36.6838 28.3594 36.3673 28.2538 36.0508 28.078L31.7618 25.1952V10.582H37.3867L38.7931 12.3047Z" fill="#A8AFF1"></path>
<path d="M47.6993 35.3906H40.5509C39.5793 35.3906 38.7931 34.6044 38.7931 33.6328C38.7931 32.6612 39.5793 31.875 40.5509 31.875H47.6993C48.6709 31.875 49.4572 32.6612 49.4572 33.6328C49.4572 34.6044 48.6709 35.3906 47.6993 35.3906Z" fill="#C5C9F7"></path>
<path d="M58.9493 43.828L50.5117 55.078C48.1915 58.1717 44.5352 60 40.668 60H24.7539C19.2695 60 13.8907 58.875 8.82825 56.7304L8.44153 45.9022C10.7969 34.6169 22.4689 31.8045 29.2188 37.7459C29.9572 38.3435 30.918 38.7304 31.7617 38.8358C32.0078 38.9062 32.2188 38.9062 32.4297 38.9062H38.9102C40.8438 38.9062 42.3906 40.4531 42.4258 42.3867V42.4218C42.4258 44.3554 40.8438 45.9375 38.9102 45.9375H27.9531C26.9686 45.9375 26.1953 46.7108 26.1953 47.6953C26.1953 48.6795 26.9686 49.4531 27.9531 49.4531H41.8281C43.5859 49.4531 44.8516 48.7147 45.9413 47.4843L53.9219 38.2734C55.1875 36.9023 57.3671 36.7967 58.6679 37.9217C58.9844 38.1678 59.2654 38.4492 59.4763 38.8006C60.2853 39.9961 60.1797 42.2109 58.9493 43.828Z" fill="#FEC478"></path>
<path d="M38.9103 45.9375H31.7618V38.8358C32.0079 38.9062 32.2189 38.9062 32.4298 38.9062H38.9103C40.8439 38.9062 42.3907 40.4531 42.4259 42.3867V42.4219C42.4259 44.3555 40.8438 45.9375 38.9103 45.9375Z" fill="#FEB756"></path>
<path d="M58.9493 43.828L50.5117 55.078C48.1915 58.1717 44.5352 60 40.668 60H31.7617V49.4531H41.8282C43.5861 49.4531 44.8517 48.7147 45.9414 47.4844L53.922 38.2734C55.1876 36.9023 57.3672 36.7967 58.668 37.9217C58.9845 38.1678 59.2655 38.4492 59.4764 38.8006C60.2853 39.9961 60.1797 42.2109 58.9493 43.828Z" fill="#FEB756"></path>
<path d="M14.0664 40.6641C14.0664 37.7562 11.7009 35.3906 8.79297 35.3906H1.76172C0.790117 35.3906 0.00390625 36.1768 0.00390625 37.1484V58.2422C0.00390625 59.2138 0.790117 60 1.76172 60H8.79297C11.7009 60 14.0664 57.6345 14.0664 54.7266V40.6641Z" fill="#17ACE8"></path>
<path d="M38.7926 0H24.7301V12.3047H38.7926V0Z" fill="#E1E4FB"></path>
<path d="M38.7926 0H31.7614V12.3047H38.7926V0Z" fill="#C5C9F7"></path>
</svg>