<svg width="64" height="64" viewBox="0 0 64 64" fill="none" xmlns="http://www.w3.org/2000/svg">
<path d="M29.5326 18.0989C27.4794 20.2844 27.4794 23.7419 29.5326 25.9274C30.8723 27.3541 32.7568 27.9361 34.5422 27.6733C35.3171 27.5591 36.0083 28.1724 36.0083 28.9554V33.1404C36.0083 34.7247 34.7241 36.0089 33.1398 36.0089H28.9548C28.1718 36.0089 27.5585 35.3178 27.6727 34.5428C27.9353 32.7574 27.3534 30.873 25.9267 29.5332C23.7413 27.48 20.2837 27.48 18.0983 29.5332C16.6716 30.8729 16.0897 32.7573 16.3523 34.5428C16.4665 35.3177 15.8533 36.0089 15.0702 36.0089H10.8849C9.30055 36.0089 8.01641 34.7247 8.01641 33.1404V28.9554C8.01641 28.1724 7.32433 27.5591 6.5493 27.6733C4.76496 27.9359 2.87959 27.3541 1.53986 25.9274C-0.513286 23.7418 -0.513286 20.2843 1.53986 18.0989C2.87959 16.6722 4.76508 16.0902 6.5493 16.353C7.32433 16.4671 8.01641 15.8539 8.01641 15.0708V10.8857C8.01641 9.30141 9.30055 8.01727 10.8849 8.01727H15.0698C15.8529 8.01727 16.4662 7.32519 16.352 6.55016C16.0893 4.76582 16.6712 2.88045 18.0979 1.54059C20.2833 -0.512554 23.741 -0.512554 25.9264 1.54059C27.3531 2.88045 27.935 4.76582 27.6723 6.55016C27.5581 7.32506 28.1714 8.01727 28.9545 8.01727H33.1394C34.7237 8.01727 36.0079 9.30141 36.0079 10.8857V15.0707C36.0079 15.8538 35.3168 16.467 34.5418 16.3528C32.7568 16.0903 30.8723 16.6722 29.5326 18.0989Z" fill="url(#paint0_linear_439_451)"></path>
<path d="M1.53973 25.9276C2.87946 27.3543 4.76482 27.9362 6.54929 27.6735C7.32432 27.5593 8.0164 28.1726 8.0164 28.9557V33.1406C8.0164 34.725 9.30054 36.0091 10.8849 36.0091H15.0698C15.8529 36.0091 16.4662 35.318 16.352 34.543C16.0893 32.7576 16.6712 30.8733 18.0979 29.5334C20.2833 27.4803 23.7409 27.4803 25.9264 29.5334C27.3531 30.8732 27.935 32.7575 27.6723 34.543C27.5581 35.3179 28.1714 36.0091 28.9544 36.0091H33.1394C34.7237 36.0091 36.0079 34.725 36.0079 33.1406V28.9557C36.0079 28.1726 35.3168 27.5593 34.5418 27.6735C32.7564 27.9362 30.8721 27.3543 29.5322 25.9276C28.8978 25.2523 28.4601 24.4556 28.2178 23.6125H0.225342C0.467789 24.4556 0.905499 25.2525 1.53973 25.9276Z" fill="url(#paint1_linear_439_451)"></path>
<path d="M29.5326 46.089C27.4794 48.2745 27.4794 51.732 29.5326 53.9175C30.8723 55.3442 32.7568 55.9262 34.5422 55.6634C35.3171 55.5492 36.0083 56.1625 36.0083 56.9455V61.1305C36.0083 62.7148 34.7241 63.999 33.1398 63.999H28.9548C28.1718 63.999 27.5585 63.3079 27.6727 62.5329C27.9353 60.7475 27.3534 58.8632 25.9267 57.5233C23.7413 55.4702 20.2837 55.4702 18.0983 57.5233C16.6716 58.863 16.0897 60.7474 16.3523 62.5329C16.4665 63.3078 15.8533 63.999 15.0702 63.999H10.8849C9.30055 63.999 8.01641 62.7148 8.01641 61.1305V56.9455C8.01641 56.1625 7.32433 55.5492 6.5493 55.6634C4.76496 55.9261 2.87959 55.3442 1.53986 53.9175C-0.513286 51.7319 -0.513286 48.2744 1.53986 46.089C2.87959 44.6623 4.76508 44.0803 6.5493 44.3431C7.32433 44.4573 8.01641 43.844 8.01641 43.0609V38.876C8.01641 37.2916 9.30055 36.0075 10.8849 36.0075H15.0698C15.8529 36.0075 16.4662 35.3154 16.352 34.5404C16.0893 32.7561 16.6712 30.8707 18.0979 29.5308C20.2833 27.4777 23.741 27.4777 25.9264 29.5308C27.3531 30.8707 27.935 32.7561 27.6723 34.5404C27.5581 35.3153 28.1714 36.0075 28.9545 36.0075H33.1394C34.7237 36.0075 36.0079 37.2916 36.0079 38.876V43.0609C36.0079 43.844 35.3168 44.4573 34.5418 44.3431C32.7568 44.0803 30.8723 44.6623 29.5326 46.089Z" fill="url(#paint2_linear_439_451)"></path>
<path d="M57.5244 46.089C55.4712 48.2745 55.4712 51.732 57.5244 53.9175C58.8641 55.3442 60.7486 55.9262 62.534 55.6634C63.3089 55.5492 64.0001 56.1625 64.0001 56.9455V61.1305C64.0001 62.7148 62.7159 63.999 61.1316 63.999H56.9466C56.1636 63.999 55.5503 63.3079 55.6645 62.5329C55.9272 60.7475 55.3453 58.8632 53.9186 57.5233C51.7331 55.4702 48.2755 55.4702 46.0901 57.5233C44.6634 58.863 44.0815 60.7474 44.3442 62.5329C44.4584 63.3078 43.8451 63.999 43.062 63.999H38.8771C37.2927 63.999 36.0086 62.7148 36.0086 61.1305V56.9455C36.0086 56.1625 35.3165 55.5492 34.5415 55.6634C32.7571 55.9261 30.8718 55.3442 29.532 53.9175C27.4789 51.7319 27.4789 48.2744 29.532 46.089C30.8718 44.6623 32.7573 44.0803 34.5415 44.3431C35.3165 44.4573 36.0086 43.844 36.0086 43.0609V38.876C36.0086 37.2916 37.2927 36.0075 38.8771 36.0075H43.062C43.8451 36.0075 44.4584 35.3154 44.3442 34.5404C44.0815 32.7561 44.6634 30.8707 46.0901 29.5308C48.2755 27.4777 51.7331 27.4777 53.9186 29.5308C55.3453 30.8707 55.9272 32.7561 55.6645 34.5404C55.5503 35.3153 56.1636 36.0075 56.9466 36.0075H61.1316C62.7159 36.0075 64.0001 37.2916 64.0001 38.876V43.0609C64.0001 43.844 63.309 44.4573 62.534 44.3431C60.7485 44.0803 58.8641 44.6623 57.5244 46.089Z" fill="url(#paint3_linear_439_451)"></path>
<path d="M34.5422 44.343C35.3171 44.4571 36.0083 43.8439 36.0083 43.0608V38.8758C36.0083 37.2915 34.7242 36.0074 33.1398 36.0074H28.9549C28.1718 36.0074 27.5585 35.3153 27.6727 34.5403C27.9354 32.7559 27.3535 30.8706 25.9268 29.5307C24.8408 28.5106 23.4408 27.9979 22.0387 27.9915C21.5855 29.2176 21.3386 30.5714 21.3386 32.0214C21.3386 35.3666 22.2442 38.3689 24.5625 40.4288L29.883 45.7494C31.1897 44.5727 32.9068 44.1024 34.5422 44.343Z" fill="url(#paint4_linear_439_451)"></path>
<path d="M56.9464 63.999H61.1314C62.7157 63.999 63.9998 62.7148 63.9998 61.1306V56.9456C63.9998 56.1625 63.3088 55.5493 62.5337 55.6635C60.7484 55.9261 58.864 55.3442 57.5242 53.9175C55.471 51.7321 55.471 48.2745 57.5242 46.0891C58.3134 45.2486 59.2921 44.7038 60.3276 44.4495L45.7546 29.8761C44.5747 31.1837 44.103 32.9038 44.3439 34.5402C44.4581 35.3151 43.8449 36.0073 43.0618 36.0073H38.8768C37.2925 36.0073 36.0084 37.2914 36.0084 38.8758V43.0607C36.0084 43.8438 35.3163 44.4571 34.5413 44.3429C32.9071 44.1023 31.1894 44.5724 29.8826 45.7489L44.4524 60.3188C44.7074 59.2861 45.2516 58.3105 46.0899 57.5233C48.2753 55.4702 51.7329 55.4702 53.9183 57.5233C55.345 58.8631 55.9271 60.7476 55.6643 62.5329C55.5501 63.3079 56.1634 63.999 56.9464 63.999Z" fill="url(#paint5_linear_439_451)"></path>
<path d="M31.9999 43.2456C38.2107 43.2456 43.2455 38.2108 43.2455 32.0001C43.2455 25.7893 38.2107 20.7545 31.9999 20.7545C25.7892 20.7545 20.7544 25.7893 20.7544 32.0001C20.7544 38.2108 25.7892 43.2456 31.9999 43.2456Z" fill="url(#paint6_linear_439_451)"></path>
<path d="M30.1654 37.3424C29.1897 37.3424 28.2724 36.9625 27.5825 36.2726L24.4764 33.1665C23.8269 32.5171 23.8269 31.464 24.4764 30.8144C25.1258 30.1649 26.1789 30.1649 26.8285 30.8144L29.9346 33.9206C30.0137 33.9996 30.1038 34.0162 30.1654 34.0162C30.227 34.0162 30.3171 33.9996 30.3962 33.9206L37.1719 27.145C37.8214 26.4955 38.8744 26.4955 39.5239 27.145C40.1734 27.7944 40.1734 28.8475 39.5239 29.4971L32.7484 36.2726C32.0583 36.9625 31.1411 37.3424 30.1654 37.3424Z" fill="white"></path>
<path d="M1.53973 53.9175C2.87946 55.3442 4.76482 55.9261 6.54929 55.6634C7.32432 55.5492 8.0164 56.1625 8.0164 56.9455V61.1305C8.0164 62.7148 9.30054 63.999 10.8849 63.999H15.0698C15.8529 63.999 16.4662 63.3079 16.352 62.5329C16.0893 60.7475 16.6712 58.8632 18.0979 57.5233C20.2833 55.4702 23.7409 55.4702 25.9264 57.5233C27.3531 58.863 27.935 60.7474 27.6723 62.5329C27.5581 63.3078 28.1714 63.999 28.9544 63.999H33.1394C34.7237 63.999 36.0079 62.7148 36.0079 61.1305V56.9455C36.0079 56.1625 35.3168 55.5492 34.5418 55.6634C32.7564 55.9261 30.8721 55.3442 29.5322 53.9175C28.8978 53.2422 28.4601 52.4455 28.2178 51.6024H0.225342C0.467789 52.4455 0.905499 53.2422 1.53973 53.9175Z" fill="url(#paint7_linear_439_451)"></path>
<path d="M29.3061 53.9175C30.6458 55.3442 32.5312 55.9261 34.3157 55.6634C35.0907 55.5492 35.7828 56.1625 35.7828 56.9455V61.1305C35.7828 62.7148 37.0669 63.999 38.6512 63.999H42.8362C43.6192 63.999 44.2325 63.3079 44.1183 62.5329C43.8557 60.7475 44.4376 58.8632 45.8643 57.5233C48.0497 55.4702 51.5073 55.4702 53.6927 57.5233C55.1194 58.863 55.7013 60.7474 55.4387 62.5329C55.3245 63.3078 55.9377 63.999 56.7208 63.999H60.9058C62.4901 63.999 63.7742 62.7148 63.7742 61.1305V56.9455C63.7742 56.1625 63.0832 55.5492 62.3081 55.6634C60.5228 55.9261 58.6384 55.3442 57.2986 53.9175C56.6642 53.2422 56.2265 52.4455 55.9842 51.6024H27.9917C28.234 52.4455 28.6717 53.2422 29.3061 53.9175Z" fill="url(#paint8_linear_439_451)"></path>
<path d="M49.9235 14.0765C48.9891 13.1421 48.9891 11.627 49.9235 10.6925L54.5105 6.10546C55.4449 5.17106 56.9599 5.17106 57.8945 6.10546C58.8289 7.03986 58.8289 8.55491 57.8945 9.48943L53.3074 14.0765C52.3729 15.0109 50.8579 15.0109 49.9235 14.0765Z" fill="url(#paint9_linear_439_451)"></path>
<path d="M40.3369 13.075C39.0154 13.075 37.9441 12.0037 37.9441 10.6822V4.19509C37.9441 2.87356 39.0154 1.80225 40.3369 1.80225C41.6585 1.80225 42.7298 2.87356 42.7298 4.19509V10.6821C42.7298 12.0037 41.6585 13.075 40.3369 13.075Z" fill="url(#paint10_linear_439_451)"></path>
<path d="M50.9248 23.663C50.9248 22.3415 51.9961 21.2701 53.3177 21.2701H59.8046C61.1262 21.2701 62.1975 22.3415 62.1975 23.663C62.1975 24.9845 61.1262 26.0558 59.8046 26.0558H53.3177C51.9961 26.0558 50.9248 24.9845 50.9248 23.663Z" fill="url(#paint11_linear_439_451)"></path>
<defs>
<linearGradient id="paint0_linear_439_451" x1="11.6342" y1="11.635" x2="28.3889" y2="28.3897" gradientUnits="userSpaceOnUse">
<stop offset="0" stop-color="#7ACBFF"></stop>
<stop offset="1" stop-color="#45A2E0"></stop>
</linearGradient>
<linearGradient id="paint1_linear_439_451" x1="18.1167" y1="26.4786" x2="18.1167" y2="36.295" gradientUnits="userSpaceOnUse">
<stop offset="0" stop-color="#2F73A0" stop-opacity="0"></stop>
<stop offset="1" stop-color="#2F73A0"></stop>
</linearGradient>
<linearGradient id="paint2_linear_439_451" x1="11.6342" y1="39.625" x2="28.3889" y2="56.3798" gradientUnits="userSpaceOnUse">
<stop offset="0" stop-color="#FFCE47"></stop>
<stop offset="1" stop-color="#FF9356"></stop>
</linearGradient>
<linearGradient id="paint3_linear_439_451" x1="34.34" y1="34.3391" x2="53.0935" y2="53.0926" gradientUnits="userSpaceOnUse">
<stop offset="0" stop-color="#FF755C"></stop>
<stop offset="1" stop-color="#FF4181"></stop>
</linearGradient>
<linearGradient id="paint4_linear_439_451" x1="44.9254" y1="53.709" x2="34.8574" y2="43.6411" gradientUnits="userSpaceOnUse">
<stop offset="0" stop-color="#FF9356" stop-opacity="0"></stop>
<stop offset="1" stop-color="#FF755C"></stop>
</linearGradient>
<linearGradient id="paint5_linear_439_451" x1="47.124" y1="47.1181" x2="31.1277" y2="31.1217" gradientUnits="userSpaceOnUse">
<stop offset="0" stop-color="#843561" stop-opacity="0"></stop>
<stop offset="1" stop-color="#3A2F4D"></stop>
</linearGradient>
<linearGradient id="paint6_linear_439_451" x1="27.1786" y1="27.1787" x2="37.8731" y2="37.8733" gradientUnits="userSpaceOnUse">
<stop offset="0" stop-color="#E4E08E"></stop>
<stop offset="1" stop-color="#6FA953"></stop>
</linearGradient>
<linearGradient id="paint7_linear_439_451" x1="18.1167" y1="54.7117" x2="18.1167" y2="62.4287" gradientUnits="userSpaceOnUse">
<stop offset="0" stop-color="#FF9356" stop-opacity="0"></stop>
<stop offset="1" stop-color="#FF755C"></stop>
</linearGradient>
<linearGradient id="paint8_linear_439_451" x1="45.8831" y1="57.535" x2="45.8831" y2="67.1636" gradientUnits="userSpaceOnUse">
<stop offset="0" stop-color="#843561" stop-opacity="0"></stop>
<stop offset="1" stop-color="#3A2F4D"></stop>
</linearGradient>
<linearGradient id="paint9_linear_439_451" x1="54.1547" y1="10.3953" x2="52.4903" y2="8.73085" gradientUnits="userSpaceOnUse">
<stop offset="0" stop-color="#6FA953"></stop>
<stop offset="1" stop-color="#43765A"></stop>
</linearGradient>
<linearGradient id="paint10_linear_439_451" x1="40.7575" y1="7.43876" x2="38.4033" y2="7.43876" gradientUnits="userSpaceOnUse">
<stop offset="0" stop-color="#FFCE47"></stop>
<stop offset="1" stop-color="#FF9356"></stop>
</linearGradient>
<linearGradient id="paint11_linear_439_451" x1="56.5612" y1="24.0834" x2="56.5612" y2="21.7292" gradientUnits="userSpaceOnUse">
<stop offset="0" stop-color="#7ACBFF"></stop>
<stop offset="1" stop-color="#45A2E0"></stop>
</linearGradient>
</defs>
</svg>