<svg width="58" height="58" viewBox="0 0 58 58" fill="none" xmlns="http://www.w3.org/2000/svg">
<path d="M55.8183 58H2.18171C0.976788 58 0 57.0232 0 55.8183V11.1451C0 9.94017 0.976788 8.96338 2.18171 8.96338H55.8184C57.0232 8.96338 58 9.94017 58 11.1451V55.8183C58 57.0232 57.0232 58 55.8183 58Z" fill="url(#paint0_linear_175_30)"></path>
<path d="M58 11.1449V55.8185C58 57.0229 57.0231 57.9998 55.8188 57.9998H48.6995L13.5618 22.862V8.96362H55.8188C57.0231 8.96362 58 9.94053 58 11.1449Z" fill="url(#paint1_linear_175_30)"></path>
<path d="M55.8183 8.96338H40.5791C41.784 8.96338 42.7608 9.94017 42.7608 11.1451V55.8183C42.7608 57.0232 41.784 58 40.5791 58H55.8183C57.0232 58 58 57.0232 58 55.8183V11.1451C58 9.94017 57.0232 8.96338 55.8183 8.96338Z" fill="url(#paint2_linear_175_30)"></path>
<path d="M58.0001 11.1451V37.7467L36.1909 15.9387V8.96387H55.8188C57.0232 8.96387 58.0001 9.94077 58.0001 11.1451Z" fill="url(#paint3_linear_175_30)"></path>
<path d="M0 46.1725V55.8182C0 57.0232 0.976788 57.9999 2.18171 57.9999H55.8184C57.0233 57.9999 58.0001 57.0232 58.0001 55.8182V46.1725H0Z" fill="url(#paint4_linear_175_30)"></path>
<path d="M15.801 23.2357L15.8438 23.2618C16.8244 23.8571 18.0573 23.8471 19.0282 23.2359C20.0203 22.6367 21.2628 22.6367 22.2549 23.2359C23.2471 23.835 24.4895 23.835 25.4818 23.2359L25.4819 23.2357C25.9417 22.9695 26.4505 22.9637 26.9629 23.0598C27.5474 23.1694 28.0902 22.7313 28.0902 22.1367V9.40706C28.0902 8.9832 27.7465 8.63953 27.3226 8.63953H13.9597C13.5358 8.63953 13.1921 8.9832 13.1921 9.40706V22.1187C13.1921 22.7098 13.7297 23.1523 14.3106 23.0434C14.8282 22.9464 15.3417 22.9569 15.801 23.2357Z" fill="url(#paint5_linear_175_30)"></path>
<path d="M6.22864 45.032H7.62496V49.697C7.62496 49.8832 7.77587 50.034 7.96204 50.034H10.4723C10.6585 50.034 10.8094 49.883 10.8094 49.697V45.032H12.2057C12.6329 45.032 12.8885 44.5569 12.6532 44.2005L9.66474 39.6725C9.45287 39.3515 8.9817 39.3515 8.76972 39.6725L5.78124 44.2005C5.54594 44.5569 5.8016 45.032 6.22864 45.032Z" fill="#C4573A"></path>
<path d="M13.5491 51.6261H4.88496C4.76509 51.6261 4.66797 51.7232 4.66797 51.8431V53.1151C4.66797 53.2349 4.76509 53.332 4.88496 53.332H13.5491C13.669 53.332 13.7661 53.2349 13.7661 53.1151V51.8431C13.7661 51.7232 13.669 51.6261 13.5491 51.6261Z" fill="#C4573A"></path>
<path d="M50.153 46.7359H45.8588C45.7391 46.7359 45.6418 46.6388 45.6418 46.5189V45.2469C45.6418 45.127 45.739 45.0299 45.8588 45.0299H50.153C50.2729 45.0299 50.37 45.127 50.37 45.2469V46.5189C50.37 46.6388 50.2729 46.7359 50.153 46.7359Z" fill="#C4573A"></path>
<path d="M55.6118 50.034H45.8588C45.7391 50.034 45.6418 49.9369 45.6418 49.817V48.545C45.6418 48.4251 45.739 48.328 45.8588 48.328H55.6118C55.7317 48.328 55.8288 48.4251 55.8288 48.545V49.817C55.8288 49.9369 55.7317 50.034 55.6118 50.034Z" fill="#C4573A"></path>
<path d="M52.655 53.332H45.8588C45.7391 53.332 45.6418 53.2348 45.6418 53.115V51.843C45.6418 51.7231 45.739 51.626 45.8588 51.626H52.655C52.7748 51.626 52.8719 51.7231 52.8719 51.843V53.115C52.8719 53.2348 52.7748 53.332 52.655 53.332Z" fill="#C4573A"></path>
<path d="M42.7608 18.651C47.9111 18.651 52.0863 14.4758 52.0863 9.32549C52.0863 4.17516 47.9111 0 42.7608 0C37.6105 0 33.4353 4.17516 33.4353 9.32549C33.4353 14.4758 37.6105 18.651 42.7608 18.651Z" fill="url(#paint6_linear_175_30)"></path>
<path d="M33.4382 9.43921C33.4994 14.5368 37.6487 18.651 42.7609 18.651C47.8731 18.651 52.0223 14.5368 52.0835 9.43921H33.4382Z" fill="url(#paint7_linear_175_30)"></path>
<path d="M40.1621 14.4523L44.2421 18.5326C48.6882 17.8227 52.0862 13.9715 52.0862 9.32551C52.0862 8.93271 52.059 8.54638 52.012 8.16631L49.2294 5.38379L40.1621 14.4523Z" fill="url(#paint8_linear_175_30)"></path>
<path d="M49.7514 6.85351L42.1525 14.4524C41.6027 15.0022 40.7114 15.0022 40.1616 14.4524L35.77 10.0608C35.5083 9.79911 35.5083 9.37492 35.77 9.11335L37.6937 7.18968C37.9553 6.928 38.3795 6.928 38.6411 7.18968L41.0088 9.55733C41.0906 9.63921 41.2234 9.63921 41.3052 9.55733L46.8803 3.98239C47.142 3.72071 47.5662 3.72071 47.8277 3.98239L49.7514 5.90606C50.0131 6.16763 50.0131 6.59183 49.7514 6.85351Z" fill="url(#paint9_linear_175_30)"></path>
<defs>
<linearGradient id="paint0_linear_175_30" x1="9.74275" y1="14.2245" x2="56.0486" y2="60.5303" gradientUnits="userSpaceOnUse">
<stop offset="0" stop-color="#FEE45A"></stop>
<stop offset="1" stop-color="#FE860A"></stop>
</linearGradient>
<linearGradient id="paint1_linear_175_30" x1="54.0707" y1="34.5215" x2="-5.63521" y2="-7.89812" gradientUnits="userSpaceOnUse">
<stop offset="0" stop-color="#FE860A" stop-opacity="0"></stop>
<stop offset="1" stop-color="#FE7701"></stop>
</linearGradient>
<linearGradient id="paint2_linear_175_30" x1="59.9277" y1="21.6064" x2="23.3959" y2="60.1345" gradientUnits="userSpaceOnUse">
<stop offset="0" stop-color="#FE860A" stop-opacity="0"></stop>
<stop offset="1" stop-color="#FE7701"></stop>
</linearGradient>
<linearGradient id="paint3_linear_175_30" x1="59.8474" y1="30.6521" x2="43.8501" y2="8.74096" gradientUnits="userSpaceOnUse">
<stop offset="0" stop-color="#FE860A" stop-opacity="0"></stop>
<stop offset="1" stop-color="#FE7701"></stop>
</linearGradient>
<linearGradient id="paint4_linear_175_30" x1="29" y1="49.8117" x2="29" y2="60.2966" gradientUnits="userSpaceOnUse">
<stop offset="0" stop-color="#FE860A" stop-opacity="0"></stop>
<stop offset="1" stop-color="#FE7701"></stop>
</linearGradient>
<linearGradient id="paint5_linear_175_30" x1="15.1007" y1="10.2583" x2="31.5972" y2="26.7547" gradientUnits="userSpaceOnUse">
<stop offset="0" stop-color="#EAF6FF"></stop>
<stop offset="0.2575" stop-color="#DCE8FA"></stop>
<stop offset="0.7423" stop-color="#B8C4ED"></stop>
<stop offset="1" stop-color="#A2AEE6"></stop>
</linearGradient>
<linearGradient id="paint6_linear_175_30" x1="36.1079" y1="2.67255" x2="50.7824" y2="17.3471" gradientUnits="userSpaceOnUse">
<stop offset="0" stop-color="#A2E62E"></stop>
<stop offset="1" stop-color="#02905D"></stop>
</linearGradient>
<linearGradient id="paint7_linear_175_30" x1="42.7609" y1="11.7137" x2="42.7609" y2="19.902" gradientUnits="userSpaceOnUse">
<stop offset="0" stop-color="#02905D" stop-opacity="0"></stop>
<stop offset="0.4554" stop-color="#028A58" stop-opacity="0.455"></stop>
<stop offset="1" stop-color="#017B4E"></stop>
</linearGradient>
<linearGradient id="paint8_linear_175_30" x1="50.7104" y1="15.9327" x2="44.852" y2="10.0744" gradientUnits="userSpaceOnUse">
<stop offset="0" stop-color="#02905D" stop-opacity="0"></stop>
<stop offset="0.4554" stop-color="#028A58" stop-opacity="0.455"></stop>
<stop offset="1" stop-color="#017B4E"></stop>
</linearGradient>
<linearGradient id="paint9_linear_175_30" x1="39.3736" y1="4.59628" x2="47.8835" y2="13.1061" gradientUnits="userSpaceOnUse">
<stop offset="0" stop-color="#EAF6FF"></stop>
<stop offset="0.2575" stop-color="#DCE8FA"></stop>
<stop offset="0.7423" stop-color="#B8C4ED"></stop>
<stop offset="1" stop-color="#A2AEE6"></stop>
</linearGradient>
</defs>
</svg>