<svg width="64" height="64" viewBox="0 0 64 64" fill="none" xmlns="http://www.w3.org/2000/svg">
<path d="M53.3503 10.6497L41.4898 22.5102C39.0608 20.0812 35.7055 18.5785 32 18.5785V1.80615C40.3373 1.80615 47.8868 5.18485 53.3503 10.6497Z" fill="url(#paint0_linear_175_54)"></path>
<path d="M22.5102 22.5101C20.0812 24.9391 18.5785 28.2945 18.5785 31.9999H1.80615C1.80615 23.6626 5.18485 16.1131 10.6497 10.6497L22.5102 22.5101Z" fill="url(#paint1_linear_175_54)"></path>
<path d="M31.9999 1.80615V18.5785C28.2945 18.5785 24.9391 20.0812 22.5101 22.5102L10.6497 10.6497C16.1131 5.18485 23.6626 1.80615 31.9999 1.80615Z" fill="url(#paint2_linear_175_54)"></path>
<path d="M62.1937 31.9999H45.4214C45.4214 28.2945 43.9187 24.9391 41.4897 22.5101L53.3502 10.6497C58.8151 16.1131 62.1937 23.6626 62.1937 31.9999Z" fill="url(#paint3_linear_175_54)"></path>
<path d="M62.1937 32C62.1937 40.3373 58.8151 47.8868 53.3502 53.3503L41.4897 41.4898C43.9187 39.0608 45.4214 35.7055 45.4214 32H62.1937Z" fill="url(#paint4_linear_175_54)"></path>
<path d="M22.5102 41.4898L10.6497 53.3503C5.18485 47.8868 1.80615 40.3373 1.80615 32H18.5785C18.5785 35.7055 20.0812 39.0608 22.5102 41.4898Z" fill="url(#paint5_linear_175_54)"></path>
<path d="M53.3503 53.3502C47.8868 58.8151 40.3373 62.1937 32 62.1937V45.4214C35.7055 45.4214 39.0608 43.9187 41.4898 41.4897L53.3503 53.3502Z" fill="url(#paint6_linear_175_54)"></path>
<path d="M31.9999 45.4214V62.1937C23.6626 62.1937 16.1131 58.8151 10.6497 53.3502L22.5101 41.4897C24.9391 43.9187 28.2945 45.4214 31.9999 45.4214Z" fill="url(#paint7_linear_175_54)"></path>
<path d="M48.1961 15.8038L41.4898 22.5101C39.0608 20.0811 35.7055 18.5785 32 18.5785V9.09595C38.3256 9.09595 44.0501 11.6592 48.1961 15.8038Z" fill="url(#paint8_linear_175_54)"></path>
<path d="M22.5101 22.5102C20.0811 24.9391 18.5785 28.2945 18.5785 32H9.09595C9.09595 25.6744 11.6591 19.9499 15.8038 15.8038L22.5101 22.5102Z" fill="url(#paint9_linear_175_54)"></path>
<path d="M31.9999 9.09595V18.5785C28.2944 18.5785 24.939 20.0811 22.51 22.5101L15.8037 15.8038C19.9498 11.6592 25.6743 9.09595 31.9999 9.09595Z" fill="url(#paint10_linear_175_54)"></path>
<path d="M54.9039 32H45.4214C45.4214 28.2945 43.9187 24.9391 41.4897 22.5102L48.1961 15.8038C52.3406 19.9499 54.9039 25.6744 54.9039 32Z" fill="url(#paint11_linear_175_54)"></path>
<path d="M54.9039 31.9999C54.9039 38.3255 52.3406 44.0499 48.1961 48.196L41.4897 41.4897C43.9187 39.0607 45.4214 35.7054 45.4214 31.9999H54.9039Z" fill="url(#paint12_linear_175_54)"></path>
<path d="M22.5101 41.4897L15.8038 48.196C11.6592 44.0499 9.09595 38.3255 9.09595 31.9999H18.5785C18.5785 35.7054 20.0811 39.0607 22.5101 41.4897Z" fill="url(#paint13_linear_175_54)"></path>
<path d="M48.1961 48.1961C44.0501 52.3406 38.3256 54.9039 32 54.9039V45.4214C35.7055 45.4214 39.0608 43.9187 41.4898 41.4897L48.1961 48.1961Z" fill="url(#paint14_linear_175_54)"></path>
<path d="M31.9999 45.4214V54.9039C25.6743 54.9039 19.9498 52.3406 15.8037 48.1961L22.51 41.4897C24.939 43.9187 28.2944 45.4214 31.9999 45.4214Z" fill="url(#paint15_linear_175_54)"></path>
<path d="M56.837 14.8286L44.5168 27.1487C45.1006 28.6535 45.4215 30.2891 45.4215 31.9998C45.4215 35.7053 43.9189 39.0606 41.4899 41.4896C39.0609 43.9186 35.7055 45.4212 32.0001 45.4212C30.2894 45.4212 28.6536 45.1004 27.149 44.5166L14.8289 56.8367C19.7042 60.2138 25.6209 62.1936 32.0002 62.1936C40.3375 62.1936 47.887 58.8149 53.3505 53.3501C58.8153 47.8867 62.194 40.3371 62.194 31.9998C62.1939 25.6206 60.214 19.7039 56.837 14.8286Z" fill="url(#paint16_linear_175_54)"></path>
<path d="M6.51474 44.4914L0.0662992 62.53C-0.245669 63.4027 0.597123 64.2456 1.46991 63.9337L19.5085 57.4852C23.1074 53.8863 10.1135 40.8926 6.51474 44.4914Z" fill="url(#paint17_linear_175_54)"></path>
<path d="M41.2846 35.7112L19.5083 57.4852C19.1525 56.8687 18.6119 56.3232 17.9193 55.9367C16.9731 55.4126 15.4933 55.6995 14.4688 56.0102C14.2458 56.0766 14.0419 55.9604 13.959 55.7826C13.9068 55.6759 13.8974 55.5454 13.9542 55.4174C13.9566 55.4174 13.9566 55.415 13.9566 55.415C14.0136 55.2846 14.0634 55.1517 14.106 55.019C14.125 54.955 14.1439 54.891 14.163 54.8269C14.1654 54.8221 14.1654 54.8197 14.1654 54.8151C14.22 54.6088 14.2579 54.4024 14.2792 54.1914C14.2864 54.1226 14.2911 54.0514 14.2958 53.9827C14.3017 53.8681 14.3028 53.7535 14.299 53.639C14.2731 52.8372 14.0112 52.041 13.5131 51.3646C13.3921 51.1986 13.257 51.0421 13.1076 50.8926C12.9582 50.7431 12.8017 50.608 12.6357 50.487C11.8625 49.9179 10.9329 49.657 10.0176 49.7045C9.94881 49.7092 9.87765 49.714 9.80889 49.721C9.59781 49.7424 9.38912 49.7803 9.1852 49.8349C9.18043 49.8349 9.17805 49.8348 9.17328 49.8372C9.10928 49.8562 9.04515 49.8751 8.98115 49.8942C8.91238 49.9155 8.846 49.9393 8.77961 49.9654C8.71561 49.9891 8.65149 50.0152 8.58749 50.0437C8.5851 50.0437 8.5851 50.0437 8.58272 50.046C8.45459 50.103 8.32421 50.0935 8.21754 50.0413C8.03972 49.9583 7.92352 49.7543 7.9899 49.5314C8.30062 48.5069 8.58749 47.0295 8.06344 46.0833C7.67681 45.3885 7.13381 44.8477 6.51489 44.4921L28.2889 22.7158C29.2707 21.7363 30.8596 21.7363 31.8391 22.7158L33.6912 24.5679L39.4325 30.3092L41.2846 32.1613C42.2639 33.1405 42.2639 34.7293 41.2846 35.7112Z" fill="url(#paint18_linear_175_54)"></path>
<path d="M39.4325 30.3089L13.959 55.7824C13.9068 55.6758 13.8973 55.5453 13.9542 55.4173C13.9566 55.4173 13.9566 55.4149 13.9566 55.4149C14.0135 55.2845 14.2601 54.3999 14.2791 54.1912C14.2886 54.1201 14.2933 54.0513 14.2956 53.9825C14.3431 53.0672 14.0822 52.1376 13.5131 51.3644C13.3921 51.1984 13.257 51.0419 13.1076 50.8925C12.9582 50.743 12.8017 50.6079 12.6357 50.4869C11.8625 49.9178 10.9329 49.6569 10.0176 49.7043C9.94879 49.7067 9.88002 49.7115 9.80887 49.7209C9.60018 49.7398 9.39149 49.7779 9.18518 49.8347C9.18042 49.8347 9.17803 49.8347 9.17326 49.8371C9.10926 49.8537 8.6516 50.0149 8.58747 50.0434C8.58509 50.0434 8.58509 50.0434 8.58271 50.0458C8.45458 50.1028 8.3242 50.0932 8.21753 50.041L33.691 24.5675L39.4325 30.3089Z" fill="url(#paint19_linear_175_54)"></path>
<path d="M3.70764 60.2924C3.02498 59.6098 2.26199 59.062 1.45497 58.6459L0.0665434 62.5299C-0.245425 63.4027 0.597367 64.2456 1.47015 63.9335L5.3542 62.5451C4.93807 61.738 4.39031 60.975 3.70764 60.2924Z" fill="url(#paint20_linear_175_54)"></path>
<path d="M61.9688 2.03128L35.6742 28.3259L31.8278 24.4795C30.9894 23.6411 30.9894 22.2816 31.8278 21.4432L34.1283 19.1427C35.1213 18.1497 35.6791 16.803 35.6791 15.3987V12.5319C35.6791 10.2765 37.1078 8.26864 39.2387 7.5295L60.7408 0.0711187C61.9312 -0.34187 62.8596 1.1403 61.9688 2.03128Z" fill="url(#paint21_linear_175_54)"></path>
<path d="M61.9687 2.03133L35.6741 28.3259L39.5205 32.1723C40.3589 33.0107 41.7183 33.0107 42.5567 32.1723L44.8572 29.8718C45.8502 28.8788 47.197 28.321 48.6012 28.321H51.4679C53.7233 28.321 55.7312 26.8923 56.4703 24.7614L63.9287 3.25913C64.3417 2.06885 62.8595 1.14035 61.9687 2.03133Z" fill="url(#paint22_linear_175_54)"></path>
<path d="M49.5802 15.6544L62.7878 2.4468C63.1166 2.11801 63.1556 1.5828 62.8487 1.23343C62.5124 0.850563 61.9289 0.836508 61.5742 1.19102L48.3764 14.3889C47.5123 15.2531 46.3149 15.7262 45.0975 15.6186C43.9715 15.5192 42.8079 15.9455 42.0052 16.898C40.8676 18.2476 40.8857 20.2608 42.0448 21.592C43.4365 23.1902 45.8635 23.2528 47.3364 21.7799C48.1077 21.0086 48.4576 19.9756 48.3866 18.9668C48.2997 17.7377 48.709 16.5257 49.5802 15.6544Z" fill="url(#paint23_linear_175_54)"></path>
<path d="M35.4559 16.9177C35.2065 17.7504 34.754 18.5168 34.1283 19.1427L31.8278 21.4432C30.9894 22.2816 30.9894 23.641 31.8278 24.4794L35.6742 28.3258L39.5206 32.1722C40.359 33.0106 41.7184 33.0106 42.5568 32.1722L44.8573 29.8717C45.4831 29.2459 46.2496 28.7934 47.0822 28.544L35.4559 16.9177Z" fill="url(#paint24_linear_175_54)"></path>
<path d="M38.0642 38.9314L25.0686 25.9356L30.2477 20.7565C30.8476 20.1567 31.82 20.1567 32.4197 20.7565L43.2433 31.5802C43.8432 32.18 43.8432 33.1524 43.2433 33.7522L38.0642 38.9314Z" fill="url(#paint25_linear_175_54)"></path>
<defs>
<linearGradient id="paint0_linear_175_54" x1="28.7317" y1="0.670717" x2="48.6935" y2="20.6324" gradientUnits="userSpaceOnUse">
<stop offset="0" stop-color="#FFF5D9"></stop>
<stop offset="1" stop-color="#FFCE47"></stop>
</linearGradient>
<linearGradient id="paint1_linear_175_54" x1="5.65431" y1="20.7511" x2="14.5893" y2="29.6861" gradientUnits="userSpaceOnUse">
<stop offset="0" stop-color="#6FA953"></stop>
<stop offset="1" stop-color="#43765A"></stop>
</linearGradient>
<linearGradient id="paint2_linear_175_54" x1="20.2261" y1="5.12913" x2="31.9682" y2="16.8714" gradientUnits="userSpaceOnUse">
<stop offset="0" stop-color="#E4E08E"></stop>
<stop offset="1" stop-color="#6FA953"></stop>
</linearGradient>
<linearGradient id="paint3_linear_175_54" x1="41.6416" y1="13.5806" x2="60.6995" y2="32.6387" gradientUnits="userSpaceOnUse">
<stop offset="0" stop-color="#FFCE47"></stop>
<stop offset="1" stop-color="#FF9356"></stop>
</linearGradient>
<linearGradient id="paint4_linear_175_54" x1="45.8754" y1="30.7785" x2="56.9237" y2="41.8269" gradientUnits="userSpaceOnUse">
<stop offset="0" stop-color="#FF9356"></stop>
<stop offset="1" stop-color="#FF755C"></stop>
</linearGradient>
<linearGradient id="paint5_linear_175_54" x1="4.06234" y1="32.1234" x2="17.0628" y2="45.1238" gradientUnits="userSpaceOnUse">
<stop offset="0" stop-color="#7ACBFF"></stop>
<stop offset="1" stop-color="#45A2E0"></stop>
</linearGradient>
<linearGradient id="paint6_linear_175_54" x1="31.9788" y1="47.0757" x2="42.8851" y2="57.9819" gradientUnits="userSpaceOnUse">
<stop offset="0" stop-color="#FF755C"></stop>
<stop offset="1" stop-color="#FF4181"></stop>
</linearGradient>
<linearGradient id="paint7_linear_175_54" x1="13.3619" y1="41.4227" x2="39.7343" y2="67.7953" gradientUnits="userSpaceOnUse">
<stop offset="0" stop-color="#FF4181"></stop>
<stop offset="1" stop-color="#843561"></stop>
</linearGradient>
<linearGradient id="paint8_linear_175_54" x1="44.0562" y1="21.1493" x2="31.7706" y2="8.86367" gradientUnits="userSpaceOnUse">
<stop offset="0" stop-color="#FFF5D9"></stop>
<stop offset="1" stop-color="#FFCE47"></stop>
</linearGradient>
<linearGradient id="paint9_linear_175_54" x1="19.7821" y1="31.2341" x2="4.55508" y2="16.0071" gradientUnits="userSpaceOnUse">
<stop offset="0" stop-color="#6FA953"></stop>
<stop offset="1" stop-color="#43765A"></stop>
</linearGradient>
<linearGradient id="paint10_linear_175_54" x1="30.4316" y1="18.9797" x2="16.8804" y2="5.4285" gradientUnits="userSpaceOnUse">
<stop offset="0" stop-color="#E4E08E"></stop>
<stop offset="1" stop-color="#6FA953"></stop>
</linearGradient>
<linearGradient id="paint11_linear_175_54" x1="54.7595" y1="31.8526" x2="40.4538" y2="17.547" gradientUnits="userSpaceOnUse">
<stop offset="0" stop-color="#FFCE47"></stop>
<stop offset="1" stop-color="#FF9356"></stop>
</linearGradient>
<linearGradient id="paint12_linear_175_54" x1="53.7732" y1="42.3212" x2="44.2159" y2="32.7639" gradientUnits="userSpaceOnUse">
<stop offset="0" stop-color="#FF9356"></stop>
<stop offset="1" stop-color="#FF755C"></stop>
</linearGradient>
<linearGradient id="paint13_linear_175_54" x1="23.5371" y1="46.4439" x2="5.89143" y2="28.7982" gradientUnits="userSpaceOnUse">
<stop offset="0" stop-color="#7ACBFF"></stop>
<stop offset="1" stop-color="#45A2E0"></stop>
</linearGradient>
<linearGradient id="paint14_linear_175_54" x1="42.8319" y1="54.2838" x2="29.9704" y2="41.4224" gradientUnits="userSpaceOnUse">
<stop offset="0" stop-color="#FF755C"></stop>
<stop offset="1" stop-color="#FF4181"></stop>
</linearGradient>
<linearGradient id="paint15_linear_175_54" x1="32.2901" y1="55.197" x2="16.5938" y2="39.5007" gradientUnits="userSpaceOnUse">
<stop offset="0" stop-color="#FF4181"></stop>
<stop offset="1" stop-color="#843561"></stop>
</linearGradient>
<linearGradient id="paint16_linear_175_54" x1="44.9636" y1="44.9635" x2="35.8416" y2="35.8414" gradientUnits="userSpaceOnUse">
<stop offset="0" stop-color="#843561" stop-opacity="0"></stop>
<stop offset="1" stop-color="#3A2F4D"></stop>
</linearGradient>
<linearGradient id="paint17_linear_175_54" x1="1.53649" y1="49.466" x2="14.5284" y2="62.4579" gradientUnits="userSpaceOnUse">
<stop offset="0" stop-color="#FFE0EA"></stop>
<stop offset="1" stop-color="#FFC0D5"></stop>
</linearGradient>
<linearGradient id="paint18_linear_175_54" x1="6.51489" y1="39.7331" x2="42.0191" y2="39.7331" gradientUnits="userSpaceOnUse">
<stop offset="0" stop-color="#FFCE47"></stop>
<stop offset="1" stop-color="#FF9356"></stop>
</linearGradient>
<linearGradient id="paint19_linear_175_54" x1="29.2164" y1="45.5665" x2="16.0991" y2="32.4492" gradientUnits="userSpaceOnUse">
<stop offset="0" stop-color="#FFCE47"></stop>
<stop offset="1" stop-color="#FF9356"></stop>
</linearGradient>
<linearGradient id="paint20_linear_175_54" x1="1.63961" y1="61.5705" x2="4.95461" y2="64.8855" gradientUnits="userSpaceOnUse">
<stop offset="0" stop-color="#2F73A0"></stop>
<stop offset="1" stop-color="#174461"></stop>
</linearGradient>
<linearGradient id="paint21_linear_175_54" x1="46.1735" y1="11.2325" x2="47.8843" y2="14.0431" gradientUnits="userSpaceOnUse">
<stop offset="0" stop-color="#EDF5FF"></stop>
<stop offset="1" stop-color="#C7E9FF"></stop>
</linearGradient>
<linearGradient id="paint22_linear_175_54" x1="50.5183" y1="16.6407" x2="52.84" y2="20.7954" gradientUnits="userSpaceOnUse">
<stop offset="0" stop-color="#EDF5FF"></stop>
<stop offset="1" stop-color="#C7E9FF"></stop>
</linearGradient>
<linearGradient id="paint23_linear_175_54" x1="54.9052" y1="13.8616" x2="50.9183" y2="9.87466" gradientUnits="userSpaceOnUse">
<stop offset="0" stop-color="#2F73A0"></stop>
<stop offset="1" stop-color="#174461"></stop>
</linearGradient>
<linearGradient id="paint24_linear_175_54" x1="39.7991" y1="24.1986" x2="37.621" y2="26.3767" gradientUnits="userSpaceOnUse">
<stop offset="0" stop-color="#7ACBFF" stop-opacity="0"></stop>
<stop offset="1" stop-color="#2F73A0"></stop>
</linearGradient>
<linearGradient id="paint25_linear_175_54" x1="35.717" y1="27.378" x2="32.3262" y2="32.824" gradientUnits="userSpaceOnUse">
<stop offset="0" stop-color="#2F73A0"></stop>
<stop offset="1" stop-color="#174461"></stop>
</linearGradient>
</defs>
</svg>